<?xml version="1.0" encoding="UTF-8" standalone="no"?>
<!-- Created with Inkscape (http://www.inkscape.org/) -->

<svg
   width="161.724mm"
   height="96.132416mm"
   viewBox="0 0 161.724 96.132416"
   version="1.1"
   id="svg1"
   xml:space="preserve"
   sodipodi:docname="insufficient.svg"
   inkscape:export-filename="insufficient.png"
   inkscape:export-xdpi="96"
   inkscape:export-ydpi="96"
   inkscape:version="1.3.2 (091e20ef0f, 2023-11-25)"
   xmlns:inkscape="http://www.inkscape.org/namespaces/inkscape"
   xmlns:sodipodi="http://sodipodi.sourceforge.net/DTD/sodipodi-0.dtd"
   xmlns="http://www.w3.org/2000/svg"
   xmlns:svg="http://www.w3.org/2000/svg"><sodipodi:namedview
     id="namedview1"
     pagecolor="#ffffff"
     bordercolor="#000000"
     borderopacity="0.25"
     inkscape:showpageshadow="2"
     inkscape:pageopacity="0.0"
     inkscape:pagecheckerboard="0"
     inkscape:deskcolor="#d1d1d1"
     inkscape:document-units="mm"
     inkscape:zoom="1.932137"
     inkscape:cx="305.62016"
     inkscape:cy="181.66414"
     inkscape:window-width="1920"
     inkscape:window-height="982"
     inkscape:window-x="0"
     inkscape:window-y="0"
     inkscape:window-maximized="1"
     inkscape:current-layer="g94" /><defs
     id="defs1" /><g
     inkscape:groupmode="layer"
     id="layer3"
     inkscape:label="2"><g
       id="g94"
       inkscape:label="g94"><rect
         style="display:inline;fill:#d12c5e;fill-opacity:1;stroke:none;stroke-width:2.794;stroke-opacity:1"
         id="rect1"
         width="161.724"
         height="96.132416"
         x="14.895469"
         y="33.800056"
         ry="3.5249581e-15"
         transform="translate(-14.895469,-33.800055)" /><rect
         style="display:inline;fill:#5e1028;fill-opacity:1;stroke:none;stroke-width:2.794;stroke-opacity:1"
         id="rect2"
         width="161.724"
         height="31.368954"
         x="14.895469"
         y="98.563515"
         ry="3.5249581e-15"
         transform="translate(-14.895469,-33.800055)" /><path
         style="display:inline;fill:#ffffff;fill-opacity:1;stroke:#ffffff;stroke-width:6;stroke-linecap:round;stroke-dasharray:none;stroke-opacity:1"
         d="M 44.390311,84.057892 70.553393,57.303139"
         id="path5"
         transform="translate(-14.895469,-33.800055)" /><path
         style="display:inline;fill:#ffffff;fill-opacity:1;stroke:#ffffff;stroke-width:6;stroke-linecap:round;stroke-dasharray:none;stroke-opacity:1"
         d="M 70.553393,84.057892 44.390311,57.303139"
         id="path5-0"
         transform="translate(-14.895469,-33.800055)" /><path
         style="font-size:30.0664px;font-family:Helvetica;-inkscape-font-specification:Helvetica;letter-spacing:0px;word-spacing:-0.0281873px;fill:#ffffff;stroke-width:7.99008;stroke-linecap:round"
         d="m 76.424329,39.269897 q 0.205532,1.482767 0.807447,2.21681 1.101064,1.335958 3.772981,1.335958 1.600214,0 2.598512,-0.352341 1.893831,-0.675319 1.893831,-2.510427 0,-1.071703 -0.939575,-1.658937 -0.939575,-0.572553 -2.950853,-1.012979 l -2.290214,-0.51383 q -3.376598,-0.763405 -4.668513,-1.658937 -2.187448,-1.497448 -2.187448,-4.683195 0,-2.90681 2.114043,-4.830002 2.114044,-1.923193 6.210004,-1.923193 3.42064,0 5.828301,1.820426 2.422342,1.805746 2.539789,5.255748 H 84.8071 q -0.117447,-1.952554 -1.70298,-2.774682 -1.057022,-0.543192 -2.627874,-0.543192 -1.747022,0 -2.789363,0.704681 -1.042341,0.704681 -1.042341,1.967235 0,1.159788 1.02766,1.732342 0.660638,0.381702 2.818725,0.895532 l 3.728938,0.895533 q 2.451704,0.587234 3.699577,1.570852 1.937873,1.526809 1.937873,4.418938 0,2.965534 -2.275533,4.932769 -2.260852,1.952555 -6.400855,1.952555 -4.228087,0 -6.650429,-1.923193 -2.422342,-1.937873 -2.422342,-5.314471 z m 4.389577,-15.620435 z m 10.408729,9.425112 V 30.09436 h 2.231491 v -4.462982 h 4.140002 v 4.462982 h 2.598512 v 2.980214 h -2.598512 v 8.456175 q 0,0.983618 0.249575,1.233192 0.249575,0.234894 1.526809,0.234894 0.190851,0 0.396384,0 0.220212,-0.01468 0.425744,-0.02936 v 3.127024 l -1.981916,0.0734 q -2.965533,0.102766 -4.051917,-1.02766 -0.704681,-0.719362 -0.704681,-2.21681 v -9.850857 z m 18.835545,9.924261 q 1.83511,0 2.81872,-1.306596 0.98362,-1.306597 0.98362,-3.714258 0,-2.407661 -0.98362,-3.699576 -0.98361,-1.306597 -2.81872,-1.306597 -1.83511,0 -2.83341,1.306597 -0.98362,1.291915 -0.98362,3.699576 0,2.407661 0.98362,3.714258 0.9983,1.306596 2.83341,1.306596 z m 8.19192,-5.020854 q 0,3.523406 -2.02596,6.033833 -2.02596,2.495747 -6.15128,2.495747 -4.12532,0 -6.15128,-2.495747 -2.02596,-2.510427 -2.02596,-6.033833 0,-3.464683 2.02596,-6.004471 2.02596,-2.539789 6.15128,-2.539789 4.12532,0 6.15128,2.539789 2.02596,2.539788 2.02596,6.004471 z m -8.17724,-8.456175 z m 22.19746,8.426813 q 0,-1.849788 -0.85149,-3.273831 -0.83681,-1.424044 -2.73064,-1.424044 -2.27553,0 -3.12702,2.158087 -0.44043,1.145107 -0.44043,2.90681 0,2.789363 1.48277,3.919789 0.88085,0.660639 2.08468,0.660639 1.74702,0 2.65723,-1.350639 0.9249,-1.350639 0.9249,-3.596811 z m -2.3783,-8.353409 q 2.80404,0 4.74192,2.070002 1.95255,2.070001 1.95255,6.077875 0,4.228088 -1.90851,6.444898 -1.89383,2.21681 -4.88873,2.21681 -1.90851,0 -3.17106,-0.954256 -0.69,-0.528511 -1.35064,-1.541491 v 8.338729 h -4.14 V 29.947551 h 4.00787 v 2.363618 q 0.67532,-1.042341 1.43872,-1.644256 1.39469,-1.071703 3.31788,-1.071703 z"
         id="text5"
         transform="scale(0.99239567,1.0076626)"
         aria-label="Stop" /><path
         d="m 36.78234,82.061958 h -3.837632 v -1.015496 l 1.027305,-0.472324 v -5.455342 l -1.027305,-0.472324 v -1.015497 h 3.837632 v 1.015497 l -1.027304,0.472324 v 5.455342 l 1.027304,0.472324 z"
         id="text94"
         style="font-weight:bold;font-size:11.8081px;-inkscape-font-specification:sans-serif;letter-spacing:0px;word-spacing:-0.01107px;fill:#ffffff;stroke-width:3.13796;stroke-linecap:round"
         transform="scale(0.97162459,1.0292041)"
         aria-label="I" /><path
         d="m 42.22406,75.554654 q 1.039113,0 1.664942,0.566788 0.625829,0.554981 0.625829,1.794831 v 4.203684 h -1.759407 v -3.766784 q 0,-0.696678 -0.24797,-1.039113 -0.24797,-0.354243 -0.791142,-0.354243 -0.802951,0 -1.098154,0.554981 -0.295202,0.543173 -0.295202,1.570477 v 3.034682 h -1.759407 v -6.447222 h 1.346123 l 0.236162,0.826566 h 0.09446 q 0.212546,-0.330626 0.519556,-0.531364 0.307011,-0.212546 0.68487,-0.307011 0.377859,-0.106272 0.779335,-0.106272 z"
         id="text93"
         style="font-weight:bold;font-size:11.8081px;-inkscape-font-specification:sans-serif;letter-spacing:0px;word-spacing:-0.01107px;fill:#ffffff;stroke-width:3.13796;stroke-linecap:round"
         transform="scale(0.97162458,1.0292041)"
         aria-label="n" /><path
         d="m 50.72137,80.149046 q 0,0.649446 -0.30701,1.109962 -0.307011,0.448707 -0.921032,0.684869 -0.614021,0.236162 -1.523245,0.236162 -0.673062,0 -1.157194,-0.09446 -0.484132,-0.08266 -0.968264,-0.283395 v -1.452396 q 0.519557,0.236162 1.12177,0.389667 0.602213,0.153505 1.062729,0.153505 0.519556,0 0.732102,-0.153505 0.224354,-0.153505 0.224354,-0.401475 0,-0.165314 -0.09446,-0.295203 -0.08266,-0.129889 -0.377859,-0.295202 -0.295203,-0.165314 -0.921032,-0.425092 -0.602213,-0.259778 -0.99188,-0.507748 -0.389668,-0.259778 -0.578597,-0.614021 -0.18893,-0.366051 -0.18893,-0.909224 0,-0.897416 0.696678,-1.346123 0.696678,-0.448708 1.853872,-0.448708 0.602213,0 1.145385,0.118081 0.543173,0.118081 1.12177,0.389667 l -0.531365,1.263467 q -0.472324,-0.200738 -0.897415,-0.330627 -0.425092,-0.141697 -0.861992,-0.141697 -0.389667,0 -0.590405,0.106273 -0.188929,0.106273 -0.188929,0.318818 0,0.153506 0.09446,0.283395 0.106273,0.118081 0.389667,0.259778 0.295202,0.141697 0.861991,0.377859 0.554981,0.224354 0.956456,0.472324 0.401476,0.236162 0.614022,0.602213 0.224353,0.354243 0.224353,0.93284 z"
         id="text92"
         style="font-weight:bold;font-size:11.8081px;-inkscape-font-specification:sans-serif;letter-spacing:0px;word-spacing:-0.01107px;fill:#ffffff;stroke-width:3.13796;stroke-linecap:round"
         transform="scale(0.97162458,1.0292041)"
         aria-label="s" /><path
         d="m 57.623625,75.614736 v 6.447222 H 56.277502 L 56.04134,81.235391 h -0.09446 q -0.200738,0.330627 -0.519556,0.543173 -0.307011,0.200738 -0.68487,0.295202 -0.377859,0.106273 -0.779335,0.106273 -0.684869,0 -1.204426,-0.24797 -0.519556,-0.24797 -0.802951,-0.767526 -0.283394,-0.519557 -0.283394,-1.346124 v -4.203683 h 1.759407 v 3.766784 q 0,0.684869 0.24797,1.039112 0.24797,0.354243 0.791143,0.354243 0.543172,0 0.838375,-0.24797 0.30701,-0.24797 0.425091,-0.720294 0.129889,-0.472324 0.129889,-1.157194 v -3.034681 z"
         id="text91"
         style="font-weight:bold;font-size:11.8081px;-inkscape-font-specification:sans-serif;letter-spacing:0px;word-spacing:-0.01107px;fill:#ffffff;stroke-width:3.13796;stroke-linecap:round"
         transform="scale(0.97162459,1.0292041)"
         aria-label="u" /><path
         d="m 63.548182,77.044077 h -1.523245 v 5.124716 H 60.26553 V 77.044077 H 59.297266 V 76.193894 L 60.26553,75.72157 v -0.472324 q 0,-0.826567 0.271586,-1.275274 0.283395,-0.460516 0.791143,-0.649446 0.519556,-0.18893 1.216234,-0.18893 0.519557,0 0.93284,0.08266 0.425092,0.08266 0.68487,0.18893 l -0.448708,1.287083 q -0.200738,-0.05904 -0.4369,-0.106273 -0.236162,-0.05904 -0.543172,-0.05904 -0.366051,0 -0.543173,0.224354 -0.165313,0.224354 -0.165313,0.566789 v 0.401475 h 1.523245 z"
         id="text90"
         style="font-weight:bold;font-size:11.8081px;-inkscape-font-specification:sans-serif;letter-spacing:0px;word-spacing:-0.01107px;fill:#ffffff;stroke-width:3.13796;stroke-linecap:round"
         transform="scale(0.97162458,1.0292041)"
         aria-label="f" /><path
         d="m 68.219858,77.101824 h -1.523245 v 5.124716 h -1.759406 v -5.124716 h -0.968265 v -0.850183 l 0.968265,-0.472324 v -0.472324 q 0,-0.826567 0.271586,-1.275275 0.283394,-0.460516 0.791143,-0.649445 0.519556,-0.18893 1.216234,-0.18893 0.519556,0 0.93284,0.08266 0.425091,0.08266 0.68487,0.18893 l -0.448708,1.287082 q -0.200738,-0.05904 -0.4369,-0.106272 -0.236162,-0.05904 -0.543173,-0.05904 -0.366051,0 -0.543172,0.224354 -0.165314,0.224354 -0.165314,0.566789 v 0.401475 h 1.523245 z"
         id="text89"
         style="font-weight:bold;font-size:11.8081px;-inkscape-font-specification:sans-serif;letter-spacing:0px;word-spacing:-0.01107px;fill:#ffffff;stroke-width:3.13796;stroke-linecap:round"
         transform="scale(0.97162458,1.0292041)"
         aria-label="f" /><path
         d="m 71.223919,75.729383 v 6.447222 h -1.759407 v -6.447222 z m -0.8738,-2.526934 q 0.389667,0 0.673062,0.18893 0.283394,0.177122 0.283394,0.673062 0,0.484132 -0.283394,0.673061 -0.283395,0.18893 -0.673062,0.18893 -0.401475,0 -0.68487,-0.18893 -0.271586,-0.188929 -0.271586,-0.673061 0,-0.49594 0.271586,-0.673062 0.283395,-0.18893 0.68487,-0.18893 z"
         id="text88"
         style="font-weight:bold;font-size:11.8081px;-inkscape-font-specification:sans-serif;letter-spacing:0px;word-spacing:-0.01107px;fill:#ffffff;stroke-width:3.13796;stroke-linecap:round"
         transform="scale(0.97162458,1.0292041)"
         aria-label="i" /><path
         d="m 75.608088,82.092545 q -0.956456,0 -1.629517,-0.342434 -0.673062,-0.354243 -1.027305,-1.086346 -0.354243,-0.732102 -0.354243,-1.877488 0,-1.180809 0.401475,-1.92472 0.401476,-0.74391 1.109962,-1.098153 0.720294,-0.354243 1.653134,-0.354243 0.661253,0 1.145385,0.129889 0.495941,0.129889 0.861992,0.307011 l -0.519557,1.357931 q -0.413283,-0.165313 -0.779334,-0.271586 -0.354243,-0.106273 -0.708486,-0.106273 -0.460516,0 -0.767527,0.224354 -0.30701,0.212546 -0.460516,0.649445 -0.141697,0.425092 -0.141697,1.074537 0,0.637638 0.153506,1.062729 0.165313,0.413284 0.472324,0.62583 0.30701,0.200737 0.74391,0.200737 0.55498,0 0.980072,-0.141697 0.425092,-0.153505 0.826567,-0.413283 v 1.499628 q -0.401475,0.259779 -0.850183,0.366051 -0.4369,0.118081 -1.109962,0.118081 z"
         id="text87"
         style="font-weight:bold;font-size:11.8081px;-inkscape-font-specification:sans-serif;letter-spacing:0px;word-spacing:-0.01107px;fill:#ffffff;stroke-width:3.13796;stroke-linecap:round"
         transform="scale(0.97162458,1.0292041)"
         aria-label="c" /><path
         d="m 80.618801,75.597387 v 6.447222 h -1.759407 v -6.447222 z m -0.8738,-2.526934 q 0.389668,0 0.673062,0.18893 0.283394,0.177121 0.283394,0.673062 0,0.484132 -0.283394,0.673061 -0.283394,0.18893 -0.673062,0.18893 -0.401475,0 -0.684869,-0.18893 -0.271587,-0.188929 -0.271587,-0.673061 0,-0.495941 0.271587,-0.673062 0.283394,-0.18893 0.684869,-0.18893 z"
         id="text86"
         style="font-weight:bold;font-size:11.8081px;-inkscape-font-specification:sans-serif;letter-spacing:0px;word-spacing:-0.01107px;fill:#ffffff;stroke-width:3.13796;stroke-linecap:round"
         transform="scale(0.97162458,1.0292041)"
         aria-label="i" /><path
         d="m 84.53429,75.496655 q 0.897416,0 1.535053,0.342435 0.649446,0.342435 1.003689,0.99188 0.354243,0.649446 0.354243,1.594094 v 0.850183 h -4.156451 q 0.02362,0.74391 0.436899,1.169002 0.425092,0.425091 1.169002,0.425091 0.62583,0 1.133578,-0.118081 0.507748,-0.129889 1.050921,-0.389667 v 1.357931 q -0.472324,0.236162 -1.003689,0.342435 -0.519556,0.118081 -1.263466,0.118081 -0.968265,0 -1.712175,-0.354243 -0.74391,-0.366051 -1.169002,-1.098153 -0.425091,-0.732102 -0.425091,-1.842064 0,-1.133577 0.377859,-1.877487 0.389667,-0.755719 1.074537,-1.133578 0.68487,-0.377859 1.594093,-0.377859 z m 0.01181,1.251658 q -0.507748,0 -0.850183,0.330627 -0.330626,0.330627 -0.389667,1.027305 h 2.467893 q 0,-0.389667 -0.141697,-0.696678 -0.129889,-0.307011 -0.401476,-0.484132 -0.271586,-0.177122 -0.68487,-0.177122 z"
         id="text85"
         style="font-weight:bold;font-size:11.8081px;-inkscape-font-specification:sans-serif;letter-spacing:0px;word-spacing:-0.01107px;fill:#ffffff;stroke-width:3.13796;stroke-linecap:round"
         transform="scale(0.97162459,1.0292041)"
         aria-label="e" /><path
         d="m 92.516563,75.496655 q 1.039113,0 1.664942,0.566789 0.625829,0.55498 0.625829,1.794831 v 4.203683 h -1.759406 v -3.766784 q 0,-0.696677 -0.24797,-1.039112 -0.247971,-0.354243 -0.791143,-0.354243 -0.802951,0 -1.098153,0.55498 -0.295203,0.543173 -0.295203,1.570478 v 3.034681 h -1.759407 v -6.447222 h 1.346124 l 0.236162,0.826567 h 0.09446 q 0.212546,-0.330627 0.519557,-0.531365 0.30701,-0.212545 0.68487,-0.30701 0.377859,-0.106273 0.779334,-0.106273 z"
         id="text84"
         style="font-weight:bold;font-size:11.8081px;-inkscape-font-specification:sans-serif;letter-spacing:0px;word-spacing:-0.01107px;fill:#ffffff;stroke-width:3.13796;stroke-linecap:round"
         transform="scale(0.97162459,1.0292041)"
         aria-label="n" /><path
         d="m 99.329834,80.774875 q 0.295203,0 0.566789,-0.05904 0.271587,-0.05904 0.543177,-0.141697 v 1.310699 q -0.2834,0.118081 -0.70849,0.200738 -0.413284,0.09446 -0.909224,0.09446 -0.578597,0 -1.039113,-0.188929 -0.448707,-0.18893 -0.720294,-0.649446 -0.259778,-0.472324 -0.259778,-1.298891 v -3.10553 h -0.838375 v -0.74391 l 0.968264,-0.590405 0.507749,-1.357932 h 1.121769 v 1.36974 h 1.806642 v 1.322507 h -1.806642 v 3.10553 q 0,0.366051 0.212546,0.554981 0.212546,0.177121 0.55498,0.177121 z"
         id="text83"
         style="font-weight:bold;font-size:11.8081px;-inkscape-font-specification:sans-serif;letter-spacing:0px;word-spacing:-0.01107px;fill:#ffffff;stroke-width:3.13796;stroke-linecap:round"
         transform="scale(0.97162459,1.0292041)"
         aria-label="t" /><path
         d="m 108.36377,76.937243 h -1.52324 v 5.124715 h -1.75941 v -5.124715 h -0.96826 V 76.08706 l 0.96826,-0.472324 v -0.472324 q 0,-0.826567 0.27159,-1.275275 0.28339,-0.460516 0.79114,-0.649445 0.51956,-0.18893 1.21623,-0.18893 0.51956,0 0.93284,0.08266 0.42509,0.08266 0.68487,0.188929 l -0.4487,1.287083 q -0.20074,-0.05904 -0.4369,-0.106273 -0.23617,-0.05904 -0.54318,-0.05904 -0.36605,0 -0.54317,0.224354 -0.16531,0.224354 -0.16531,0.566788 v 0.401476 h 1.52324 z"
         id="text82"
         style="font-weight:bold;font-size:11.8081px;-inkscape-font-specification:sans-serif;letter-spacing:0px;word-spacing:-0.01107px;fill:#ffffff;stroke-width:3.13796;stroke-linecap:round"
         transform="scale(0.97162459,1.0292041)"
         aria-label="f" /><path
         d="m 112.01246,75.484847 q 1.29889,0 1.98376,0.566789 0.69668,0.55498 0.69668,1.712174 v 4.298148 h -1.22805 l -0.34243,-0.873799 h -0.0472 q -0.27159,0.342435 -0.56679,0.566789 -0.2834,0.224354 -0.66126,0.318818 -0.36605,0.106273 -0.90922,0.106273 -0.56679,0 -1.0273,-0.212545 -0.44871,-0.224354 -0.70849,-0.673062 -0.25978,-0.460516 -0.25978,-1.157194 0,-1.027305 0.7203,-1.511437 0.72029,-0.49594 2.16088,-0.543172 l 1.12177,-0.03543 V 77.76381 q 0,-0.507748 -0.27159,-0.74391 -0.25978,-0.236162 -0.7321,-0.236162 -0.47233,0 -0.92103,0.141697 -0.44871,0.129889 -0.89742,0.330627 l -0.5786,-1.192618 q 0.51956,-0.271587 1.14539,-0.425092 0.63764,-0.153505 1.32251,-0.153505 z m 0.24797,3.613278 q -0.85019,0.02362 -1.18081,0.307011 -0.33063,0.283394 -0.33063,0.74391 0,0.401476 0.23616,0.578597 0.23616,0.165313 0.61402,0.165313 0.56679,0 0.95646,-0.330626 0.38967,-0.342435 0.38967,-0.956456 v -0.531365 z"
         id="text81"
         style="font-weight:bold;font-size:11.8081px;-inkscape-font-specification:sans-serif;letter-spacing:0px;word-spacing:-0.01107px;fill:#ffffff;stroke-width:3.13796;stroke-linecap:round"
         transform="scale(0.97162459,1.0292041)"
         aria-label="a" /><path
         d="m 120.10101,75.496655 q 0.12989,0 0.30701,0.01181 0.17712,0.01181 0.28339,0.03542 l -0.12989,1.653134 q -0.0827,-0.02362 -0.24797,-0.03542 -0.1535,-0.02362 -0.27158,-0.02362 -0.34244,0 -0.66126,0.09446 -0.31881,0.08266 -0.57859,0.271586 -0.24797,0.188929 -0.40148,0.507748 -0.14169,0.307011 -0.14169,0.767527 v 3.282651 h -1.75941 v -6.447222 h 1.33431 l 0.25978,1.086345 h 0.0827 q 0.18893,-0.330627 0.47232,-0.602213 0.2834,-0.271586 0.64945,-0.4369 0.37786,-0.165313 0.80295,-0.165313 z"
         id="text80"
         style="font-weight:bold;font-size:11.8081px;-inkscape-font-specification:sans-serif;letter-spacing:0px;word-spacing:-0.01107px;fill:#ffffff;stroke-width:3.13796;stroke-linecap:round"
         transform="scale(0.97162459,1.0292041)"
         aria-label="r" /><path
         d="m 124.28107,75.496655 q 0.89742,0 1.53505,0.342435 0.64945,0.342435 1.00369,0.99188 0.35425,0.649446 0.35425,1.594094 v 0.850183 h -4.15646 q 0.0236,0.74391 0.4369,1.169002 0.4251,0.425091 1.16901,0.425091 0.62582,0 1.13357,-0.118081 0.50775,-0.129889 1.05092,-0.389667 v 1.357931 q -0.47232,0.236162 -1.00368,0.342435 -0.51956,0.118081 -1.26347,0.118081 -0.96827,0 -1.71218,-0.354243 -0.74391,-0.366051 -1.169,-1.098153 -0.42509,-0.732102 -0.42509,-1.842064 0,-1.133577 0.37786,-1.877487 0.38967,-0.755719 1.07454,-1.133578 0.68487,-0.377859 1.59409,-0.377859 z m 0.0118,1.251658 q -0.50775,0 -0.85018,0.330627 -0.33063,0.330627 -0.38967,1.027305 h 2.46789 q 0,-0.389667 -0.1417,-0.696678 -0.12989,-0.307011 -0.40147,-0.484132 -0.27159,-0.177122 -0.68487,-0.177122 z"
         id="text79"
         style="font-weight:bold;font-size:11.8081px;-inkscape-font-specification:sans-serif;letter-spacing:0px;word-spacing:-0.01107px;fill:#ffffff;stroke-width:3.13796;stroke-linecap:round"
         transform="scale(0.97162459,1.0292041)"
         aria-label="e" /><path
         style="fill:none;fill-opacity:1;stroke:#ffffff;stroke-width:1.85466;stroke-linecap:round;stroke-linejoin:round;stroke-dasharray:none;stroke-opacity:1"
         d="M 14.005771,86.789608 28.240938,86.701136 21.155413,74.34555 Z"
         id="path7" /><path
         d="m 20.85193,78.308887 h 1.432376 v 1.71153 l -0.370679,3.148484 H 21.231761 L 20.85193,80.020417 Z m 0.03203,5.400015 h 1.363732 v 1.322546 h -1.363732 z"
         id="text78"
         style="font-size:9.37223px;font-family:Helvetica;-inkscape-font-specification:'Helvetica, Normal';letter-spacing:0px;word-spacing:-0.00878648px;white-space:pre;inline-size:3.44855;fill:#ffffff;stroke-width:0.705683;stroke-linecap:round;stroke-linejoin:round"
         transform="matrix(1.1880696,0,0,1.1880696,-4.478895,-15.524093)"
         aria-label="!" /></g></g></svg>
